<svg width="19" height="18" viewBox="0 0 19 18" fill="none" xmlns="http://www.w3.org/2000/svg">
<path d="M18.4239 9.48646L10.1739 17.7365C10.0778 17.8327 9.9552 17.8983 9.82177 17.9249C9.68834 17.9514 9.55002 17.9378 9.42433 17.8857C9.29864 17.8336 9.19123 17.7454 9.11569 17.6323C9.04015 17.5191 8.99989 17.3861 9 17.25V13.8126H2.125C1.76033 13.8126 1.41059 13.6677 1.15273 13.4098C0.894866 13.152 0.75 12.8022 0.75 12.4376V5.56255C0.75 5.19788 0.894866 4.84814 1.15273 4.59028C1.41059 4.33242 1.76033 4.18755 2.125 4.18755H9V0.750053C8.99989 0.614 9.04015 0.480974 9.11569 0.367815C9.19123 0.254657 9.29864 0.166455 9.42433 0.114375C9.55002 0.0622953 9.68834 0.0486796 9.82177 0.0752518C9.9552 0.101824 10.0778 0.167389 10.1739 0.263647L18.4239 8.51365C18.4878 8.5775 18.5385 8.65332 18.5731 8.73678C18.6077 8.82024 18.6255 8.9097 18.6255 9.00005C18.6255 9.0904 18.6077 9.17986 18.5731 9.26332C18.5385 9.34678 18.4878 9.42261 18.4239 9.48646Z" fill="#3153CD"/>
</svg>
