<svg width="12" height="13" viewBox="0 0 12 13" fill="none" xmlns="http://www.w3.org/2000/svg">
<path d="M0.539539 7.27297C0.433991 7.16742 0.374695 7.02427 0.374695 6.875C0.374695 6.72573 0.433991 6.58258 0.539539 6.47703C0.645087 6.37148 0.78824 6.31219 0.937508 6.31219C1.08677 6.31219 1.22993 6.37148 1.33548 6.47703L5.43751 10.5798V1.25C5.43751 1.10082 5.49677 0.957742 5.60226 0.852252C5.70775 0.746763 5.85082 0.6875 6.00001 0.6875C6.14919 0.6875 6.29227 0.746763 6.39776 0.852252C6.50324 0.957742 6.56251 1.10082 6.56251 1.25V10.5798L10.6645 6.47703C10.7168 6.42477 10.7788 6.38331 10.8471 6.35503C10.9154 6.32674 10.9886 6.31219 11.0625 6.31219C11.1364 6.31219 11.2096 6.32674 11.2779 6.35503C11.3462 6.38331 11.4082 6.42477 11.4605 6.47703C11.5127 6.52929 11.5542 6.59134 11.5825 6.65962C11.6108 6.7279 11.6253 6.80109 11.6253 6.875C11.6253 6.94891 11.6108 7.0221 11.5825 7.09038C11.5542 7.15866 11.5127 7.22071 11.4605 7.27297L6.39798 12.3355C6.34574 12.3878 6.2837 12.4293 6.21541 12.4576C6.14713 12.4859 6.07393 12.5004 6.00001 12.5004C5.92609 12.5004 5.85289 12.4859 5.7846 12.4576C5.71632 12.4293 5.65428 12.3878 5.60204 12.3355L0.539539 7.27297Z" fill="#3153CD"/>
</svg>
