<svg width="13" height="13" viewBox="0 0 13 13" fill="none" xmlns="http://www.w3.org/2000/svg">
<path d="M12.2066 3.58545L9.41414 0.792322C9.32127 0.699439 9.21103 0.625759 9.08968 0.57549C8.96834 0.525221 8.83829 0.499348 8.70695 0.499348C8.57561 0.499348 8.44555 0.525221 8.32421 0.57549C8.20287 0.625759 8.09262 0.699439 7.99976 0.792322L0.292886 8.49982C0.199623 8.59234 0.125682 8.70248 0.0753604 8.82383C0.0250389 8.94518 -0.00065879 9.07533 -0.000239081 9.2067V11.9998C-0.000239081 12.265 0.105118 12.5194 0.292654 12.7069C0.48019 12.8945 0.734544 12.9998 0.999761 12.9998H3.79289C3.92426 13.0002 4.0544 12.9745 4.17575 12.9242C4.2971 12.8739 4.40724 12.8 4.49976 12.7067L12.2066 4.99982C12.2995 4.90696 12.3732 4.79671 12.4235 4.67537C12.4737 4.55403 12.4996 4.42397 12.4996 4.29263C12.4996 4.16129 12.4737 4.03124 12.4235 3.9099C12.3732 3.78856 12.2995 3.67831 12.2066 3.58545ZM9.99976 5.79232L7.20664 2.99982L8.70664 1.49982L11.4998 4.29232L9.99976 5.79232Z" fill="black"/>
</svg>
