<svg width="18" height="18" viewBox="0 0 18 18" fill="none" xmlns="http://www.w3.org/2000/svg">
<path d="M9 0.0625C7.23233 0.0625 5.50436 0.586675 4.0346 1.56874C2.56483 2.55081 1.41929 3.94665 0.742831 5.57977C0.0663725 7.21288 -0.11062 9.00992 0.234236 10.7436C0.579091 12.4773 1.43031 14.0698 2.68024 15.3198C3.93017 16.5697 5.52268 17.4209 7.25638 17.7658C8.99009 18.1106 10.7871 17.9336 12.4202 17.2572C14.0534 16.5807 15.4492 15.4352 16.4313 13.9654C17.4133 12.4956 17.9375 10.7677 17.9375 9C17.9345 6.63054 16.992 4.35896 15.3165 2.6835C13.641 1.00803 11.3695 0.0654563 9 0.0625ZM12.4375 9.6875H9.6875V12.4375C9.6875 12.6198 9.61507 12.7947 9.48614 12.9236C9.35721 13.0526 9.18234 13.125 9 13.125C8.81767 13.125 8.6428 13.0526 8.51387 12.9236C8.38494 12.7947 8.3125 12.6198 8.3125 12.4375V9.6875H5.5625C5.38017 9.6875 5.2053 9.61507 5.07637 9.48614C4.94744 9.35721 4.875 9.18234 4.875 9C4.875 8.81766 4.94744 8.6428 5.07637 8.51386C5.2053 8.38493 5.38017 8.3125 5.5625 8.3125H8.3125V5.5625C8.3125 5.38016 8.38494 5.2053 8.51387 5.07636C8.6428 4.94743 8.81767 4.875 9 4.875C9.18234 4.875 9.35721 4.94743 9.48614 5.07636C9.61507 5.2053 9.6875 5.38016 9.6875 5.5625V8.3125H12.4375C12.6198 8.3125 12.7947 8.38493 12.9236 8.51386C13.0526 8.6428 13.125 8.81766 13.125 9C13.125 9.18234 13.0526 9.35721 12.9236 9.48614C12.7947 9.61507 12.6198 9.6875 12.4375 9.6875Z" fill="#038A00"/>
</svg>
