<svg width="32" height="32" viewBox="0 0 32 32" fill="none" xmlns="http://www.w3.org/2000/svg">
<path d="M21 28C21 28.2652 20.8946 28.5196 20.7071 28.7071C20.5196 28.8946 20.2652 29 20 29H12C11.7348 29 11.4804 28.8946 11.2929 28.7071C11.1054 28.5196 11 28.2652 11 28C11 27.7348 11.1054 27.4804 11.2929 27.2929C11.4804 27.1054 11.7348 27 12 27H20C20.2652 27 20.5196 27.1054 20.7071 27.2929C20.8946 27.4804 21 27.7348 21 28ZM27.7313 24C27.5578 24.3056 27.3058 24.5595 27.0015 24.7353C26.6972 24.911 26.3514 25.0024 26 25H6C5.64842 24.9995 5.30318 24.9064 4.99907 24.73C4.69497 24.5535 4.44274 24.3 4.26781 23.9951C4.09289 23.6901 4.00145 23.3444 4.00271 22.9928C4.00398 22.6412 4.09789 22.2962 4.275 21.9925C4.96875 20.7975 6 17.4175 6 13C6 10.3478 7.05357 7.8043 8.92894 5.92893C10.8043 4.05357 13.3478 3 16 3C18.6522 3 21.1957 4.05357 23.0711 5.92893C24.9464 7.8043 26 10.3478 26 13C26 17.4163 27.0325 20.7975 27.7263 21.9925C27.9051 22.2966 27.9998 22.6429 28.0004 22.9957C28.0011 23.3486 27.9077 23.6952 27.73 24H27.7313ZM26 23C25.0338 21.3412 24 17.5063 24 13C24 10.8783 23.1572 8.84344 21.6569 7.34315C20.1566 5.84285 18.1217 5 16 5C13.8783 5 11.8434 5.84285 10.3431 7.34315C8.84286 8.84344 8 10.8783 8 13C8 17.5075 6.965 21.3425 6 23H26Z" fill="white"/>
<circle cx="22.5" cy="6.5" r="4.5" fill="#FF6363"/>
<path d="M21.1655 5.50085V4.52648H22.8629V9H21.7721V5.50085H21.1655Z" fill="white"/>
</svg>
