<svg width="15" height="15" viewBox="0 0 15 15" fill="none" xmlns="http://www.w3.org/2000/svg">
<path d="M14.0629 13.6871L10.5633 10.1875C11.5442 9.10849 12.0641 7.6887 12.012 6.23147C11.96 4.77425 11.3401 3.39517 10.2848 2.38894C9.22943 1.3827 7.82242 0.829111 6.36437 0.846465C4.90632 0.863819 3.51288 1.45074 2.48181 2.48181C1.45074 3.51288 0.863819 4.90632 0.846465 6.36437C0.829111 7.82242 1.3827 9.22943 2.38894 10.2848C3.39517 11.3401 4.77425 11.96 6.23147 12.012C7.6887 12.0641 9.10849 11.5442 10.1875 10.5633L13.6871 14.0629C13.7369 14.1128 13.8045 14.1408 13.875 14.1408C13.9455 14.1408 14.0131 14.1128 14.0629 14.0629C14.1128 14.0131 14.1408 13.9455 14.1408 13.875C14.1408 13.8045 14.1128 13.7369 14.0629 13.6871ZM1.39062 6.4375C1.39062 5.43932 1.68662 4.46356 2.24117 3.6336C2.79573 2.80365 3.58395 2.15678 4.50614 1.77479C5.42834 1.39281 6.44309 1.29286 7.42209 1.4876C8.40109 1.68233 9.30036 2.163 10.0062 2.86882C10.712 3.57463 11.1927 4.4739 11.3874 5.4529C11.5821 6.4319 11.4822 7.44666 11.1002 8.36885C10.7182 9.29105 10.0713 10.0793 9.24139 10.6338C8.41144 11.1884 7.43567 11.4844 6.4375 11.4844C5.09941 11.483 3.81654 10.9508 2.87037 10.0046C1.9242 9.05845 1.39203 7.77558 1.39062 6.4375Z" fill="black"/>
</svg>
